# xmcd
#
# Track frame offsets:
#	150
#	16802
#	32921
#	54224
#	76230
#	91375
#	111477
#	128393
#	143842
#	160639
#	178833
#	197957
#	216644
#	235772
#	251332
#	268626
#
# Disc length: 3811 seconds
#
# Revision: 1
# Processed by: cddbd v1.5.2PL0 Copyright (c) Steve Scherf et al.
# Submitted via: audiograbber 1.83.01
#
DISCID=d60ee110
DTITLE=Various Artist - American Heartland - CD 1
DYEAR=2013
DGENRE=Country
TTITLE0=Kelly Clarkson - Mr Know It All (Country Version)
TTITLE1=Shania Twain - You're Still The One
TTITLE2=Tim McGraw and Gwyneth Paltrow - Me and Tennessee
TTITLE3=Sheryl Crow - Home
TTITLE4=Carrie Underwood - Before He Cheats
TTITLE5=LeAnn Rimes - How Do I Live
TTITLE6=The Band Perry - If I Die Young
TTITLE7=The Civil Wars - Barton Hollow
TTITLE8=Lissie - When I'm Alone
TTITLE9=Sarah McLachlan - Angel
TTITLE10=Brad Paisley ft. Alabama - Old Alabama
TTITLE11=Sugarland - Stuck Like Glue
TTITLE12=Martina McBride - Concrete Angel
TTITLE13=Kellie Pickler - Didn't You Know How Much I Loved You
TTITLE14=Hunter Hayes - Wanted
TTITLE15=Wonderland - Need You Now
EXTD=
EXTT0=
EXTT1=
EXTT2=
EXTT3=
EXTT4=
EXTT5=
EXTT6=
EXTT7=
EXTT8=
EXTT9=
EXTT10=
EXTT11=
EXTT12=
EXTT13=
EXTT14=
EXTT15=
PLAYORDER=
